<?xml version="1.0" encoding="UTF-8" standalone="no"?>
<!-- Created with Inkscape (http://www.inkscape.org/) -->

<svg
   xmlns:dc="http://purl.org/dc/elements/1.1/"
   xmlns:cc="http://creativecommons.org/ns#"
   xmlns:rdf="http://www.w3.org/1999/02/22-rdf-syntax-ns#"
   xmlns:svg="http://www.w3.org/2000/svg"
   xmlns="http://www.w3.org/2000/svg"
   xmlns:xlink="http://www.w3.org/1999/xlink"
   xmlns:sodipodi="http://sodipodi.sourceforge.net/DTD/sodipodi-0.dtd"
   xmlns:inkscape="http://www.inkscape.org/namespaces/inkscape"
   width="210mm"
   height="297mm"
   viewBox="0 0 210 297"
   version="1.1"
   id="svg8"
   inkscape:version="0.92.0 r15299"
   sodipodi:docname="Flat Night Background.svg">
  <defs
     id="defs2">
    <linearGradient
       inkscape:collect="always"
       id="linearGradient4491">
      <stop
         style="stop-color:#0f3636;stop-opacity:1"
         offset="0"
         id="stop4487" />
      <stop
         style="stop-color:#1a6e6e;stop-opacity:1"
         offset="1"
         id="stop4489" />
    </linearGradient>
    <linearGradient
       inkscape:collect="always"
       xlink:href="#linearGradient4491"
       id="linearGradient4493"
       x1="-257.0238"
       y1="168.4881"
       x2="-256.26785"
       y2="320.8125"
       gradientUnits="userSpaceOnUse"
       gradientTransform="matrix(0.99995976,0,0,1,-0.01718589,0)" />
    <filter
       inkscape:collect="always"
       style="color-interpolation-filters:sRGB"
       id="filter4781"
       x="-0.1056"
       width="1.2112"
       y="-0.1056"
       height="1.2112">
      <feGaussianBlur
         inkscape:collect="always"
         stdDeviation="1.0144882"
         id="feGaussianBlur4783" />
    </filter>
    <filter
       inkscape:collect="always"
       style="color-interpolation-filters:sRGB"
       id="filter4803"
       x="-0.2268"
       width="1.4536"
       y="-0.2268"
       height="1.4536">
      <feGaussianBlur
         inkscape:collect="always"
         stdDeviation="0.16073437"
         id="feGaussianBlur4805" />
    </filter>
  </defs>
  <sodipodi:namedview
     id="base"
     pagecolor="#ffffff"
     bordercolor="#666666"
     borderopacity="1.0"
     inkscape:pageopacity="0.0"
     inkscape:pageshadow="2"
     inkscape:zoom="0.98994949"
     inkscape:cx="-939.00215"
     inkscape:cy="281.48045"
     inkscape:document-units="px"
     inkscape:current-layer="layer1"
     showgrid="false"
     showborder="false"
     inkscape:snap-global="false"
     inkscape:window-width="1920"
     inkscape:window-height="1017"
     inkscape:window-x="1912"
     inkscape:window-y="-8"
     inkscape:window-maximized="1" />
  <metadata
     id="metadata5">
    <rdf:RDF>
      <cc:Work
         rdf:about="">
        <dc:format>image/svg+xml</dc:format>
        <dc:type
           rdf:resource="http://purl.org/dc/dcmitype/StillImage" />
        <dc:title></dc:title>
      </cc:Work>
    </rdf:RDF>
  </metadata>
  <g
     inkscape:label="Layer 1"
     inkscape:groupmode="layer"
     id="layer1">
    <g
       id="g4999"
       inkscape:export-xdpi="96"
       inkscape:export-ydpi="96">
      <rect
         y="130.69048"
         x="-427.1131"
         height="190.5"
         width="338.65302"
         id="rect4485"
         style="fill:url(#linearGradient4493);fill-opacity:1;stroke:none;stroke-width:0.97481018;stroke-miterlimit:4;stroke-dasharray:none;stroke-opacity:1" />
      <path
         sodipodi:nodetypes="accccaaaaa"
         inkscape:connector-curvature="0"
         id="path4676"
         d="m -357.9463,224.0504 c -25.91219,1.43583 -69.16665,35.74356 -69.16665,35.74356 v 48.04049 l 338.653042,-1.93167 V 241.3956 c 0,0 -15.920782,-17.77478 -26.457272,-17.3452 -15.15884,0.61805 -21.00193,25.13687 -35.90644,27.97039 -24.12532,4.5865 -46.18417,-22.54554 -70.67863,-20.7884 -19.62489,1.40783 -34.00497,23.94817 -53.67053,24.56801 -29.53649,0.93096 -53.26763,-33.38496 -82.77352,-31.75 z"
         style="fill:#214847;fill-opacity:0.64646463;stroke:none;stroke-width:0.26457798px;stroke-linecap:butt;stroke-linejoin:miter;stroke-opacity:1" />
      <path
         sodipodi:nodetypes="accccaaaa"
         inkscape:connector-curvature="0"
         id="path4671"
         d="m -361.88571,242.20963 c -23.9474,0.59438 -41.30233,14.84511 -65.22724,30.16547 v 30.24931 l 338.653042,-4.49273 v -45.42315 c 0,0 -37.077872,16.01698 -56.679012,15.69369 -25.66528,-0.42333 -47.85131,-24.09283 -73.49618,-22.98531 -24.14755,1.04286 -42.91161,27.45801 -67.08156,27.52908 -27.37864,0.0805 -48.79871,-31.41569 -76.16905,-30.73636 z"
         style="fill:#183d3c;fill-opacity:1;stroke:none;stroke-width:0.26457798px;stroke-linecap:butt;stroke-linejoin:miter;stroke-opacity:1" />
      <g
         transform="matrix(0.99995976,0,0,1,-0.01718589,0)"
         id="g4669">
        <g
           id="g4576"
           transform="translate(-18.142857,-4.1577381)">
          <path
             sodipodi:nodetypes="aaacacacaaa"
             inkscape:connector-curvature="0"
             id="path4562"
             d="m -373.95355,233.17725 c -7.02435,0.62161 -15.24694,5.23328 -19.12146,15.29599 -2.69323,6.99468 -7.42362,20.4443 -0.47802,25.12915 2.23707,1.50892 7.44668,-3.17473 7.44668,-3.17473 0,0 4.28766,6.60284 7.69111,6.72561 3.39196,0.12235 8.12816,-6.13319 8.12816,-6.13319 0,0 4.53466,3.63969 7.16898,3.40175 3.10396,-0.28036 7.59214,-5.45692 7.59214,-5.45692 0,0 3.8589,3.822 5.63353,2.72548 6.81662,-4.21191 2.98666,-17.45533 0.31867,-24.03658 -4.90784,-12.10629 -15.79086,-15.23662 -24.37979,-14.47656 z"
             style="fill:#086f56;fill-opacity:1;stroke:none;stroke-width:0.41305465px;stroke-linecap:butt;stroke-linejoin:miter;stroke-opacity:1" />
          <path
             inkscape:connector-curvature="0"
             id="path4566"
             d="m -374.00743,260.71428 2.26785,17.29242 -1.22843,12.18973 8.78795,-0.189 -4.34671,-12.18972 -3.21281,-17.85938 z"
             style="fill:#3b3637;fill-opacity:1;stroke:none;stroke-width:0.26458332px;stroke-linecap:butt;stroke-linejoin:miter;stroke-opacity:1" />
          <path
             inkscape:connector-curvature="0"
             id="path4568"
             d="m -371.07812,267.89583 3.87427,-2.83482 4.44121,-1.79539 0.37796,1.51191 -4.5357,1.4174 -3.68527,3.1183 z"
             style="fill:#3b3637;fill-opacity:1;stroke:none;stroke-width:0.26458332px;stroke-linecap:butt;stroke-linejoin:miter;stroke-opacity:1" />
          <path
             style="fill:#0c7569;fill-opacity:1;stroke:none;stroke-width:0.34578025px;stroke-linecap:butt;stroke-linejoin:miter;stroke-opacity:1"
             d="m -374.09543,233.15194 c -6.44685,0.47464 -13.99344,3.99593 -17.54942,11.67942 -2.4718,5.34087 -6.06524,16.14282 -0.43872,19.18764 2.73556,1.48036 7.693,-5.28117 7.693,-5.28117 0,0 2.8311,7.85833 6.20026,7.99248 3.44488,0.13717 6.96932,-7.64217 6.96932,-7.64217 0,0 4.09993,5.95946 7.07019,5.55655 2.92372,-0.3966 5.25089,-7.1258 5.25089,-7.1258 0,0 4.34026,6.30713 6.88745,5.04018 5.47832,-2.72487 2.74112,-13.32821 0.29248,-18.35339 -4.50436,-9.24389 -14.49265,-11.63409 -22.37545,-11.05374 z"
             id="path4560"
             inkscape:connector-curvature="0"
             sodipodi:nodetypes="aaacacacaaa" />
          <path
             sodipodi:nodetypes="aaacacacaaa"
             inkscape:connector-curvature="0"
             id="path4558"
             d="m -373.91005,233.12258 c -5.89096,0.30412 -12.78684,2.56038 -16.0362,7.48354 -2.25866,3.42214 -4.156,10.64769 -0.40089,12.2944 3.37514,1.48008 7.88445,-7.75081 7.88445,-7.75081 0,0 1.26913,9.31367 4.81085,9.48807 3.64093,0.17928 5.87993,-9.2208 5.87993,-9.2208 0,0 3.52626,8.63101 6.94901,7.88445 2.86385,-0.62465 2.53905,-8.41899 2.53905,-8.41899 0,0 5.18532,8.61966 8.55264,7.08264 3.56694,-1.62815 2.50477,-8.54 0.26726,-11.75986 -4.11596,-5.92299 -13.243,-7.4545 -20.4461,-7.08264 z"
             style="fill:#0d8375;fill-opacity:1;stroke:none;stroke-width:0.26458332px;stroke-linecap:butt;stroke-linejoin:miter;stroke-opacity:1" />
          <path
             style="fill:#0d8375;fill-opacity:1;stroke:none;stroke-width:0.13508716px;stroke-linecap:butt;stroke-linejoin:miter;stroke-opacity:1"
             d="m -372.18673,235.84134 c -3.00894,0.12962 -6.62283,-0.68452 -8.51193,-3.03012 -1.31313,-1.63045 -2.62609,-5.21152 -0.79688,-6.22967 1.64412,-0.91513 4.38144,3.55922 4.38144,3.55922 0,0 0.19576,-4.79519 1.98754,-5.05469 1.84197,-0.26674 3.43349,4.40309 3.43349,4.40309 0,0 1.37595,-4.5571 3.15168,-4.34275 1.48579,0.17934 1.69672,4.15673 1.69672,4.15673 0,0 2.21976,-4.63137 4.00546,-4.01258 1.89155,0.65548 1.68511,4.21989 0.70316,5.96443 -1.80632,3.2091 -6.37154,4.42786 -10.05068,4.58634 z"
             id="path4564"
             inkscape:connector-curvature="0"
             sodipodi:nodetypes="aaacacacaaa" />
        </g>
        <g
           transform="matrix(-0.68869244,0.03019841,0.03019841,0.68869244,-586.56326,97.761189)"
           id="g4590">
          <path
             style="fill:#086f56;fill-opacity:1;stroke:none;stroke-width:0.41305465px;stroke-linecap:butt;stroke-linejoin:miter;stroke-opacity:1"
             d="m -373.95355,233.17725 c -7.02435,0.62161 -15.24694,5.23328 -19.12146,15.29599 -2.69323,6.99468 -7.42362,20.4443 -0.47802,25.12915 2.23707,1.50892 7.44668,-3.17473 7.44668,-3.17473 0,0 4.28766,6.60284 7.69111,6.72561 3.39196,0.12235 8.12816,-6.13319 8.12816,-6.13319 0,0 4.53466,3.63969 7.16898,3.40175 3.10396,-0.28036 7.59214,-5.45692 7.59214,-5.45692 0,0 3.8589,3.822 5.63353,2.72548 6.81662,-4.21191 2.98666,-17.45533 0.31867,-24.03658 -4.90784,-12.10629 -15.79086,-15.23662 -24.37979,-14.47656 z"
             id="path4578"
             inkscape:connector-curvature="0"
             sodipodi:nodetypes="aaacacacaaa" />
          <path
             style="fill:#3b3637;fill-opacity:1;stroke:none;stroke-width:0.26458332px;stroke-linecap:butt;stroke-linejoin:miter;stroke-opacity:1"
             d="m -374.00743,260.71428 2.26785,17.29242 -1.22843,12.18973 8.78795,-0.189 -4.34671,-12.18972 -3.21281,-17.85938 z"
             id="path4580"
             inkscape:connector-curvature="0" />
          <path
             style="fill:#3b3637;fill-opacity:1;stroke:none;stroke-width:0.26458332px;stroke-linecap:butt;stroke-linejoin:miter;stroke-opacity:1"
             d="m -371.07812,267.89583 3.87427,-2.83482 4.44121,-1.79539 0.37796,1.51191 -4.5357,1.4174 -3.68527,3.1183 z"
             id="path4582"
             inkscape:connector-curvature="0" />
          <path
             sodipodi:nodetypes="aaacacacaaa"
             inkscape:connector-curvature="0"
             id="path4584"
             d="m -374.09543,233.15194 c -6.44685,0.47464 -13.99344,3.99593 -17.54942,11.67942 -2.4718,5.34087 -6.06524,16.14282 -0.43872,19.18764 2.73556,1.48036 7.693,-5.28117 7.693,-5.28117 0,0 2.8311,7.85833 6.20026,7.99248 3.44488,0.13717 6.96932,-7.64217 6.96932,-7.64217 0,0 4.09993,5.95946 7.07019,5.55655 2.92372,-0.3966 5.25089,-7.1258 5.25089,-7.1258 0,0 4.34026,6.30713 6.88745,5.04018 5.47832,-2.72487 2.74112,-13.32821 0.29248,-18.35339 -4.50436,-9.24389 -14.49265,-11.63409 -22.37545,-11.05374 z"
             style="fill:#0c7569;fill-opacity:1;stroke:none;stroke-width:0.34578025px;stroke-linecap:butt;stroke-linejoin:miter;stroke-opacity:1" />
          <path
             style="fill:#0d8375;fill-opacity:1;stroke:none;stroke-width:0.26458332px;stroke-linecap:butt;stroke-linejoin:miter;stroke-opacity:1"
             d="m -373.91005,233.12258 c -5.89096,0.30412 -12.78684,2.56038 -16.0362,7.48354 -2.25866,3.42214 -4.156,10.64769 -0.40089,12.2944 3.37514,1.48008 7.88445,-7.75081 7.88445,-7.75081 0,0 1.26913,9.31367 4.81085,9.48807 3.64093,0.17928 5.87993,-9.2208 5.87993,-9.2208 0,0 3.52626,8.63101 6.94901,7.88445 2.86385,-0.62465 2.53905,-8.41899 2.53905,-8.41899 0,0 5.18532,8.61966 8.55264,7.08264 3.56694,-1.62815 2.50477,-8.54 0.26726,-11.75986 -4.11596,-5.92299 -13.243,-7.4545 -20.4461,-7.08264 z"
             id="path4586"
             inkscape:connector-curvature="0"
             sodipodi:nodetypes="aaacacacaaa" />
          <path
             sodipodi:nodetypes="aaacacacaaa"
             inkscape:connector-curvature="0"
             id="path4588"
             d="m -372.18673,235.84134 c -3.00894,0.12962 -6.62283,-0.68452 -8.51193,-3.03012 -1.31313,-1.63045 -2.62609,-5.21152 -0.79688,-6.22967 1.64412,-0.91513 4.38144,3.55922 4.38144,3.55922 0,0 0.19576,-4.79519 1.98754,-5.05469 1.84197,-0.26674 3.43349,4.40309 3.43349,4.40309 0,0 1.37595,-4.5571 3.15168,-4.34275 1.48579,0.17934 1.69672,4.15673 1.69672,4.15673 0,0 2.21976,-4.63137 4.00546,-4.01258 1.89155,0.65548 1.68511,4.21989 0.70316,5.96443 -1.80632,3.2091 -6.37154,4.42786 -10.05068,4.58634 z"
             style="fill:#0d8375;fill-opacity:1;stroke:none;stroke-width:0.13508716px;stroke-linecap:butt;stroke-linejoin:miter;stroke-opacity:1" />
        </g>
        <g
           id="g4604"
           transform="matrix(-0.89095263,0.0390673,0.0390673,0.89095263,-573.46236,41.956127)">
          <path
             sodipodi:nodetypes="aaacacacaaa"
             inkscape:connector-curvature="0"
             id="path4592"
             d="m -373.95355,233.17725 c -7.02435,0.62161 -15.24694,5.23328 -19.12146,15.29599 -2.69323,6.99468 -7.42362,20.4443 -0.47802,25.12915 2.23707,1.50892 7.44668,-3.17473 7.44668,-3.17473 0,0 4.28766,6.60284 7.69111,6.72561 3.39196,0.12235 8.12816,-6.13319 8.12816,-6.13319 0,0 4.53466,3.63969 7.16898,3.40175 3.10396,-0.28036 7.59214,-5.45692 7.59214,-5.45692 0,0 3.8589,3.822 5.63353,2.72548 6.81662,-4.21191 2.98666,-17.45533 0.31867,-24.03658 -4.90784,-12.10629 -15.79086,-15.23662 -24.37979,-14.47656 z"
             style="fill:#086f56;fill-opacity:1;stroke:none;stroke-width:0.41305465px;stroke-linecap:butt;stroke-linejoin:miter;stroke-opacity:1" />
          <path
             inkscape:connector-curvature="0"
             id="path4594"
             d="m -374.00743,260.71428 2.26785,17.29242 -1.22843,12.18973 8.78795,-0.189 -4.34671,-12.18972 -3.21281,-17.85938 z"
             style="fill:#3b3637;fill-opacity:1;stroke:none;stroke-width:0.26458332px;stroke-linecap:butt;stroke-linejoin:miter;stroke-opacity:1" />
          <path
             inkscape:connector-curvature="0"
             id="path4596"
             d="m -371.07812,267.89583 3.87427,-2.83482 4.44121,-1.79539 0.37796,1.51191 -4.5357,1.4174 -3.68527,3.1183 z"
             style="fill:#3b3637;fill-opacity:1;stroke:none;stroke-width:0.26458332px;stroke-linecap:butt;stroke-linejoin:miter;stroke-opacity:1" />
          <path
             style="fill:#0c7569;fill-opacity:1;stroke:none;stroke-width:0.34578025px;stroke-linecap:butt;stroke-linejoin:miter;stroke-opacity:1"
             d="m -374.09543,233.15194 c -6.44685,0.47464 -13.99344,3.99593 -17.54942,11.67942 -2.4718,5.34087 -6.06524,16.14282 -0.43872,19.18764 2.73556,1.48036 7.693,-5.28117 7.693,-5.28117 0,0 2.8311,7.85833 6.20026,7.99248 3.44488,0.13717 6.96932,-7.64217 6.96932,-7.64217 0,0 4.09993,5.95946 7.07019,5.55655 2.92372,-0.3966 5.25089,-7.1258 5.25089,-7.1258 0,0 4.34026,6.30713 6.88745,5.04018 5.47832,-2.72487 2.74112,-13.32821 0.29248,-18.35339 -4.50436,-9.24389 -14.49265,-11.63409 -22.37545,-11.05374 z"
             id="path4598"
             inkscape:connector-curvature="0"
             sodipodi:nodetypes="aaacacacaaa" />
          <path
             sodipodi:nodetypes="aaacacacaaa"
             inkscape:connector-curvature="0"
             id="path4600"
             d="m -373.91005,233.12258 c -5.89096,0.30412 -12.78684,2.56038 -16.0362,7.48354 -2.25866,3.42214 -4.156,10.64769 -0.40089,12.2944 3.37514,1.48008 7.88445,-7.75081 7.88445,-7.75081 0,0 1.26913,9.31367 4.81085,9.48807 3.64093,0.17928 5.87993,-9.2208 5.87993,-9.2208 0,0 3.52626,8.63101 6.94901,7.88445 2.86385,-0.62465 2.53905,-8.41899 2.53905,-8.41899 0,0 5.18532,8.61966 8.55264,7.08264 3.56694,-1.62815 2.50477,-8.54 0.26726,-11.75986 -4.11596,-5.92299 -13.243,-7.4545 -20.4461,-7.08264 z"
             style="fill:#0d8375;fill-opacity:1;stroke:none;stroke-width:0.26458332px;stroke-linecap:butt;stroke-linejoin:miter;stroke-opacity:1" />
          <path
             style="fill:#0d8375;fill-opacity:1;stroke:none;stroke-width:0.13508716px;stroke-linecap:butt;stroke-linejoin:miter;stroke-opacity:1"
             d="m -372.18673,235.84134 c -3.00894,0.12962 -6.62283,-0.68452 -8.51193,-3.03012 -1.31313,-1.63045 -2.62609,-5.21152 -0.79688,-6.22967 1.64412,-0.91513 4.38144,3.55922 4.38144,3.55922 0,0 0.19576,-4.79519 1.98754,-5.05469 1.84197,-0.26674 3.43349,4.40309 3.43349,4.40309 0,0 1.37595,-4.5571 3.15168,-4.34275 1.48579,0.17934 1.69672,4.15673 1.69672,4.15673 0,0 2.21976,-4.63137 4.00546,-4.01258 1.89155,0.65548 1.68511,4.21989 0.70316,5.96443 -1.80632,3.2091 -6.37154,4.42786 -10.05068,4.58634 z"
             id="path4602"
             inkscape:connector-curvature="0"
             sodipodi:nodetypes="aaacacacaaa" />
        </g>
        <g
           transform="matrix(0.62512495,0.02741105,-0.02741105,0.62512495,35.44606,115.18114)"
           id="g4618">
          <path
             style="fill:#086f56;fill-opacity:1;stroke:none;stroke-width:0.41305465px;stroke-linecap:butt;stroke-linejoin:miter;stroke-opacity:1"
             d="m -373.95355,233.17725 c -7.02435,0.62161 -15.24694,5.23328 -19.12146,15.29599 -2.69323,6.99468 -7.42362,20.4443 -0.47802,25.12915 2.23707,1.50892 7.44668,-3.17473 7.44668,-3.17473 0,0 4.28766,6.60284 7.69111,6.72561 3.39196,0.12235 8.12816,-6.13319 8.12816,-6.13319 0,0 4.53466,3.63969 7.16898,3.40175 3.10396,-0.28036 7.59214,-5.45692 7.59214,-5.45692 0,0 3.8589,3.822 5.63353,2.72548 6.81662,-4.21191 2.98666,-17.45533 0.31867,-24.03658 -4.90784,-12.10629 -15.79086,-15.23662 -24.37979,-14.47656 z"
             id="path4606"
             inkscape:connector-curvature="0"
             sodipodi:nodetypes="aaacacacaaa" />
          <path
             style="fill:#3b3637;fill-opacity:1;stroke:none;stroke-width:0.26458332px;stroke-linecap:butt;stroke-linejoin:miter;stroke-opacity:1"
             d="m -374.00743,260.71428 2.26785,17.29242 -1.22843,12.18973 8.78795,-0.189 -4.34671,-12.18972 -3.21281,-17.85938 z"
             id="path4608"
             inkscape:connector-curvature="0" />
          <path
             style="fill:#3b3637;fill-opacity:1;stroke:none;stroke-width:0.26458332px;stroke-linecap:butt;stroke-linejoin:miter;stroke-opacity:1"
             d="m -371.07812,267.89583 3.87427,-2.83482 4.44121,-1.79539 0.37796,1.51191 -4.5357,1.4174 -3.68527,3.1183 z"
             id="path4610"
             inkscape:connector-curvature="0" />
          <path
             sodipodi:nodetypes="aaacacacaaa"
             inkscape:connector-curvature="0"
             id="path4612"
             d="m -374.09543,233.15194 c -6.44685,0.47464 -13.99344,3.99593 -17.54942,11.67942 -2.4718,5.34087 -6.06524,16.14282 -0.43872,19.18764 2.73556,1.48036 7.693,-5.28117 7.693,-5.28117 0,0 2.8311,7.85833 6.20026,7.99248 3.44488,0.13717 6.96932,-7.64217 6.96932,-7.64217 0,0 4.09993,5.95946 7.07019,5.55655 2.92372,-0.3966 5.25089,-7.1258 5.25089,-7.1258 0,0 4.34026,6.30713 6.88745,5.04018 5.47832,-2.72487 2.74112,-13.32821 0.29248,-18.35339 -4.50436,-9.24389 -14.49265,-11.63409 -22.37545,-11.05374 z"
             style="fill:#0c7569;fill-opacity:1;stroke:none;stroke-width:0.34578025px;stroke-linecap:butt;stroke-linejoin:miter;stroke-opacity:1" />
          <path
             style="fill:#0d8375;fill-opacity:1;stroke:none;stroke-width:0.26458332px;stroke-linecap:butt;stroke-linejoin:miter;stroke-opacity:1"
             d="m -373.91005,233.12258 c -5.89096,0.30412 -12.78684,2.56038 -16.0362,7.48354 -2.25866,3.42214 -4.156,10.64769 -0.40089,12.2944 3.37514,1.48008 7.88445,-7.75081 7.88445,-7.75081 0,0 1.26913,9.31367 4.81085,9.48807 3.64093,0.17928 5.87993,-9.2208 5.87993,-9.2208 0,0 3.52626,8.63101 6.94901,7.88445 2.86385,-0.62465 2.53905,-8.41899 2.53905,-8.41899 0,0 5.18532,8.61966 8.55264,7.08264 3.56694,-1.62815 2.50477,-8.54 0.26726,-11.75986 -4.11596,-5.92299 -13.243,-7.4545 -20.4461,-7.08264 z"
             id="path4614"
             inkscape:connector-curvature="0"
             sodipodi:nodetypes="aaacacacaaa" />
          <path
             sodipodi:nodetypes="aaacacacaaa"
             inkscape:connector-curvature="0"
             id="path4616"
             d="m -372.18673,235.84134 c -3.00894,0.12962 -6.62283,-0.68452 -8.51193,-3.03012 -1.31313,-1.63045 -2.62609,-5.21152 -0.79688,-6.22967 1.64412,-0.91513 4.38144,3.55922 4.38144,3.55922 0,0 0.19576,-4.79519 1.98754,-5.05469 1.84197,-0.26674 3.43349,4.40309 3.43349,4.40309 0,0 1.37595,-4.5571 3.15168,-4.34275 1.48579,0.17934 1.69672,4.15673 1.69672,4.15673 0,0 2.21976,-4.63137 4.00546,-4.01258 1.89155,0.65548 1.68511,4.21989 0.70316,5.96443 -1.80632,3.2091 -6.37154,4.42786 -10.05068,4.58634 z"
             style="fill:#0d8375;fill-opacity:1;stroke:none;stroke-width:0.13508716px;stroke-linecap:butt;stroke-linejoin:miter;stroke-opacity:1" />
        </g>
        <g
           id="g4632"
           transform="matrix(0.8418323,0.03691343,-0.03691343,0.8418323,193.96425,55.983967)">
          <path
             sodipodi:nodetypes="aaacacacaaa"
             inkscape:connector-curvature="0"
             id="path4620"
             d="m -373.95355,233.17725 c -7.02435,0.62161 -15.24694,5.23328 -19.12146,15.29599 -2.69323,6.99468 -7.42362,20.4443 -0.47802,25.12915 2.23707,1.50892 7.44668,-3.17473 7.44668,-3.17473 0,0 4.28766,6.60284 7.69111,6.72561 3.39196,0.12235 8.12816,-6.13319 8.12816,-6.13319 0,0 4.53466,3.63969 7.16898,3.40175 3.10396,-0.28036 7.59214,-5.45692 7.59214,-5.45692 0,0 3.8589,3.822 5.63353,2.72548 6.81662,-4.21191 2.98666,-17.45533 0.31867,-24.03658 -4.90784,-12.10629 -15.79086,-15.23662 -24.37979,-14.47656 z"
             style="fill:#086f56;fill-opacity:1;stroke:none;stroke-width:0.41305465px;stroke-linecap:butt;stroke-linejoin:miter;stroke-opacity:1" />
          <path
             inkscape:connector-curvature="0"
             id="path4622"
             d="m -374.00743,260.71428 2.26785,17.29242 -1.22843,12.18973 8.78795,-0.189 -4.34671,-12.18972 -3.21281,-17.85938 z"
             style="fill:#3b3637;fill-opacity:1;stroke:none;stroke-width:0.26458332px;stroke-linecap:butt;stroke-linejoin:miter;stroke-opacity:1" />
          <path
             inkscape:connector-curvature="0"
             id="path4624"
             d="m -371.07812,267.89583 3.87427,-2.83482 4.44121,-1.79539 0.37796,1.51191 -4.5357,1.4174 -3.68527,3.1183 z"
             style="fill:#3b3637;fill-opacity:1;stroke:none;stroke-width:0.26458332px;stroke-linecap:butt;stroke-linejoin:miter;stroke-opacity:1" />
          <path
             style="fill:#0c7569;fill-opacity:1;stroke:none;stroke-width:0.34578025px;stroke-linecap:butt;stroke-linejoin:miter;stroke-opacity:1"
             d="m -374.09543,233.15194 c -6.44685,0.47464 -13.99344,3.99593 -17.54942,11.67942 -2.4718,5.34087 -6.06524,16.14282 -0.43872,19.18764 2.73556,1.48036 7.693,-5.28117 7.693,-5.28117 0,0 2.8311,7.85833 6.20026,7.99248 3.44488,0.13717 6.96932,-7.64217 6.96932,-7.64217 0,0 4.09993,5.95946 7.07019,5.55655 2.92372,-0.3966 5.25089,-7.1258 5.25089,-7.1258 0,0 4.34026,6.30713 6.88745,5.04018 5.47832,-2.72487 2.74112,-13.32821 0.29248,-18.35339 -4.50436,-9.24389 -14.49265,-11.63409 -22.37545,-11.05374 z"
             id="path4626"
             inkscape:connector-curvature="0"
             sodipodi:nodetypes="aaacacacaaa" />
          <path
             sodipodi:nodetypes="aaacacacaaa"
             inkscape:connector-curvature="0"
             id="path4628"
             d="m -373.91005,233.12258 c -5.89096,0.30412 -12.78684,2.56038 -16.0362,7.48354 -2.25866,3.42214 -4.156,10.64769 -0.40089,12.2944 3.37514,1.48008 7.88445,-7.75081 7.88445,-7.75081 0,0 1.26913,9.31367 4.81085,9.48807 3.64093,0.17928 5.87993,-9.2208 5.87993,-9.2208 0,0 3.52626,8.63101 6.94901,7.88445 2.86385,-0.62465 2.53905,-8.41899 2.53905,-8.41899 0,0 5.18532,8.61966 8.55264,7.08264 3.56694,-1.62815 2.50477,-8.54 0.26726,-11.75986 -4.11596,-5.92299 -13.243,-7.4545 -20.4461,-7.08264 z"
             style="fill:#0d8375;fill-opacity:1;stroke:none;stroke-width:0.26458332px;stroke-linecap:butt;stroke-linejoin:miter;stroke-opacity:1" />
          <path
             style="fill:#0d8375;fill-opacity:1;stroke:none;stroke-width:0.13508716px;stroke-linecap:butt;stroke-linejoin:miter;stroke-opacity:1"
             d="m -372.18673,235.84134 c -3.00894,0.12962 -6.62283,-0.68452 -8.51193,-3.03012 -1.31313,-1.63045 -2.62609,-5.21152 -0.79688,-6.22967 1.64412,-0.91513 4.38144,3.55922 4.38144,3.55922 0,0 0.19576,-4.79519 1.98754,-5.05469 1.84197,-0.26674 3.43349,4.40309 3.43349,4.40309 0,0 1.37595,-4.5571 3.15168,-4.34275 1.48579,0.17934 1.69672,4.15673 1.69672,4.15673 0,0 2.21976,-4.63137 4.00546,-4.01258 1.89155,0.65548 1.68511,4.21989 0.70316,5.96443 -1.80632,3.2091 -6.37154,4.42786 -10.05068,4.58634 z"
             id="path4630"
             inkscape:connector-curvature="0"
             sodipodi:nodetypes="aaacacacaaa" />
        </g>
      </g>
      <rect
         style="fill:#51494c;fill-opacity:1;stroke:none;stroke-width:0.4232204;stroke-miterlimit:4;stroke-dasharray:none;stroke-opacity:1"
         id="rect4495"
         width="338.65302"
         height="35.907738"
         x="-427.1131"
         y="285.28275" />
      <path
         inkscape:connector-curvature="0"
         id="path4553"
         d="m -307.2052,307.96156 c -14.79681,-0.0567 -29.42501,3.74022 -44.22134,3.87418 -15.46991,0.14007 -30.83396,-3.57523 -46.30022,-3.21273 -8.50249,0.19929 -22.2009,2.40618 -29.38619,3.44218 v 1.00251 c 7.15804,-1.13298 21.01273,-3.17958 29.19758,-3.40546 15.49388,-0.42764 30.89526,3.27528 46.39424,3.11815 14.79618,-0.15 29.42506,-3.92949 44.2219,-3.87419 14.96513,0.0559 29.72845,4.23436 44.69366,4.25246 11.2609,0.0136 22.37756,-3.14616 33.63845,-3.11867 13.29147,0.0324 26.39592,4.07628 39.6859,3.87469 11.87504,-0.18013 23.46387,-4.66542 35.33957,-4.53615 11.84811,0.12899 23.30228,5.41533 35.15045,5.29167 8.48324,-0.0886 22.637624,-3.07629 30.331292,-4.85087 v -1.39888 c -7.617667,1.81599 -21.698682,4.89466 -30.142682,5.02139 -11.84282,0.17775 -23.30705,-5.06232 -35.15045,-5.1971 -11.96541,-0.13616 -23.65802,4.25299 -35.62274,4.44108 -13.28391,0.20884 -26.40038,-3.70424 -39.6859,-3.68503 -11.2325,0.0162 -22.31139,3.21071 -33.54389,3.2127 -14.93386,0.003 -29.66585,-4.19463 -44.59963,-4.25193 z"
         style="fill:#8e8e8e;fill-opacity:0.62121211;stroke:none;stroke-width:0.26457798px;stroke-linecap:butt;stroke-linejoin:miter;stroke-opacity:1" />
      <path
         sodipodi:nodetypes="ccccccccccccc"
         inkscape:connector-curvature="0"
         id="path4548"
         d="m -427.11295,287.9752 v 19.41327 l 31.5596,-5.4746 57.63912,4.72435 50.81341,-6.9599 46.32257,2.04656 44.03215,2.6457 34.20584,-6.23684 33.44933,3.78013 25.88523,-1.91307 14.745792,3.83905 v -14.06374 z"
         style="fill:#464041;fill-opacity:1;stroke:none;stroke-width:0.26457798px;stroke-linecap:butt;stroke-linejoin:miter;stroke-opacity:1" />
      <rect
         y="285.28275"
         x="-427.1131"
         height="2.6690407"
         width="338.65302"
         id="rect4499"
         style="fill:#109898;fill-opacity:1;stroke:none;stroke-width:0.11538521;stroke-miterlimit:4;stroke-dasharray:none;stroke-opacity:1" />
      <path
         style="fill:#3b3637;fill-opacity:1;stroke:none;stroke-width:0.26457798px;stroke-linecap:butt;stroke-linejoin:miter;stroke-opacity:1"
         d="m -427.11309,289.46368 v 6.0244 c 0,0 12.29225,-1.39109 18.45726,-1.25251 6.79123,0.15266 13.46105,2.04677 20.24957,2.29195 7.86162,0.28395 15.72122,-0.62167 23.58086,-0.95559 12.02767,-0.51099 24.04143,-1.61557 36.07993,-1.60361 11.61981,0.0115 23.20327,1.7809 34.82193,1.61705 9.62103,-0.13567 19.16548,-1.96566 28.78566,-2.15159 12.38868,-0.23944 24.77191,0.74878 37.14897,1.33633 7.89212,0.37465 15.76091,1.41579 23.6619,1.39564 7.27222,-0.0185 14.50959,-1.01882 21.77208,-1.39564 11.21861,-0.58208 22.44396,-1.59847 33.6746,-1.33633 10.38067,0.2423 20.65167,2.56431 31.03445,2.68612 9.81854,0.1152 29.399449,-1.85091 29.399449,-1.85091 l -0.01363,-4.80531 z"
         id="path4503"
         inkscape:connector-curvature="0"
         sodipodi:nodetypes="ccaaaaaaaaaaaccc" />
      <path
         sodipodi:nodetypes="ccaaaaaaaaaaaccc"
         inkscape:connector-curvature="0"
         id="path4501"
         d="m -427.11309,287.95178 v 6.0244 c 0,0 12.29225,-1.39109 18.45726,-1.25251 6.79123,0.15266 13.46105,2.04677 20.24957,2.29195 7.86162,0.28395 15.72122,-0.62167 23.58086,-0.95559 12.02767,-0.51099 24.04143,-1.61557 36.07993,-1.60361 11.61981,0.0115 23.20327,1.7809 34.82193,1.61705 9.62103,-0.13567 19.16548,-1.96566 28.78566,-2.15159 12.38868,-0.23944 24.77191,0.74878 37.14897,1.33633 7.89212,0.37465 15.76091,1.41579 23.6619,1.39564 7.27222,-0.0185 14.50959,-1.01882 21.77208,-1.39564 11.21861,-0.58208 22.44396,-1.59847 33.6746,-1.33633 10.38067,0.2423 20.65167,2.56431 31.03445,2.68612 9.81854,0.1152 29.399449,-1.85091 29.399449,-1.85091 l -0.01363,-4.80531 z"
         style="fill:#0f7474;fill-opacity:1;stroke:none;stroke-width:0.26457798px;stroke-linecap:butt;stroke-linejoin:miter;stroke-opacity:1" />
      <path
         sodipodi:nodetypes="cccccccccccccccccccccccccccccccccccccccccccccccccccccccccccccccccccccccccccccccccccccccccccccccccccccccccccccccccccccccccccc"
         inkscape:connector-curvature="0"
         style="fill:#3b3637;fill-opacity:1;stroke:none;stroke-width:0.26457798px;stroke-linecap:butt;stroke-linejoin:miter;stroke-opacity:1"
         d="m -329.72229,291.47065 -4.20682,1.14051 -1.75721,4.53046 c 0,0 2.22945,-3.24998 2.48892,-3.38944 0.25941,-0.13949 -0.43863,4.53561 -0.43863,4.53561 l 1.49589,-4.43486 1.9776,4.07499 -0.35038,-4.63517 1.74092,2.59263 -0.54732,0.83125 c 0,0 0.50519,-0.28049 0.68892,-0.6199 l 1.52676,1.20347 -1.2224,-1.76262 c 0.42329,-0.76406 0.87262,-1.54416 0.97922,-1.60144 0.20422,-0.10983 -0.20566,2.86796 -0.20566,2.86796 l 1.03813,-2.7889 1.66872,3.19227 -0.38819,-3.63307 2.60269,3.02174 -1.86892,-4.02014 -0.11059,-0.43614 -3.31232,0.89762 -0.5896,1.97819 -1.06913,-2.99104 z m 186.12171,0.86352 -3.42394,0.22532 -1.90678,3.58582 c 0,0 2.07187,-2.52429 2.29382,-2.59157 0.22189,-0.0673 -0.94616,3.65093 -0.94616,3.65093 l 1.74608,-3.40857 0.68055,3.51398 0.66247,-3.69332 1.5988,3.86334 -0.68261,-4.69686 z m -93.20348,0.46611 -3.41102,0.37103 -1.75227,3.66387 c 0,0 1.96229,-2.61006 2.18117,-2.68666 0.21882,-0.0767 -0.78959,3.68816 -0.78959,3.68816 l 1.59933,-3.48041 0.82937,3.48247 0.50486,-3.71863 1.76158,3.792 -0.88209,-4.66378 z m -183.87854,0.0863 v 0.53433 l -0.7469,5.42359 1.88272,-4.48824 1.00249,4.3434 0.60095,-4.20957 2.60284,3.54029 c 0,0 -1.93424,-3.94143 -1.667,-3.87462 0.26725,0.0668 3.27466,2.42015 3.27466,2.42015 l -2.87419,-3.62268 z m 326.796886,0.0873 -3.311809,0.8976 -1.160607,3.89228 c 0,0 1.531987,-2.88382 1.736258,-2.99362 0.204213,-0.10981 -0.205663,3.76565 -0.205663,3.76565 l 1.038138,-3.6866 1.361618,3.31042 -0.08061,-3.75121 2.330513,3.47112 -1.597255,-4.4695 z m -10.119386,0.22839 -4.20681,1.14051 -1.37919,5.8415 c 0,0 1.85142,-4.56049 2.1109,-4.69998 0.25943,-0.13949 0.0217,3.36621 0.0217,3.36621 l 1.03556,-3.26596 0.5958,4.67775 1.0309,-5.2379 1.59054,4.97644 -0.65885,-6.24459 z m -85.95253,0.51832 v 0.53435 l -0.53432,5.61308 1.67012,-4.67722 0.76633,2.45306 0.83764,-2.31974 1.09032,4.41471 c 0,0 -0.42226,-4.81534 -0.15502,-4.74856 0.26727,0.0668 2.06957,2.42001 2.06957,2.42001 l -1.66858,-3.62302 z m -101.69152,0.0258 -0.0424,0.53279 -0.98492,5.55159 2.04166,-4.52739 0.64851,4.40957 0.93892,-4.14705 1.94657,4.11242 c 0,0 -1.24849,-4.45839 -0.98749,-4.37028 0.261,0.0881 2.6266,3.16156 2.6266,3.16156 l -2.13002,-4.3279 z m -75.28693,0.17465 -3.2281,1.16427 -1.12318,3.74899 c 0,0 1.49921,-2.85708 1.69389,-2.98312 0.19459,-0.12608 0.0718,3.7585 0.0718,3.7585 l 0.84111,-3.66498 1.90966,2.97634 -0.45635,-3.53179 2.74714,2.8685 -2.31021,-3.91139 z m 164.93005,0.0228 -3.3118,0.89763 -1.1601,3.89173 c 0,0 1.53199,-2.8833 1.73626,-2.9931 0.20421,-0.1098 -0.20566,3.76568 -0.20566,3.76568 l 1.03762,-3.6866 1.36161,3.31039 -0.0806,-3.75121 2.33051,3.47059 -1.59725,-4.46897 z"
         id="path4530" />
      <path
         inkscape:connector-curvature="0"
         id="path4505"
         d="m -329.72229,290.57295 -4.20682,1.14052 -1.47374,4.94387 c 0,0 1.94598,-3.6634 2.20545,-3.80286 0.25941,-0.13949 -0.26145,4.78367 -0.26145,4.78367 l 1.31871,-4.68291 1.72956,4.20491 -0.10234,-4.76509 1.74092,2.59263 -0.31109,1.04386 c 0,0 0.26897,-0.49311 0.45269,-0.83252 l 1.07792,1.60507 -0.77356,-2.16421 c 0.42329,-0.76406 0.87262,-1.54416 0.97921,-1.60144 0.20423,-0.10983 -0.20565,3.76565 -0.20565,3.76565 l 1.03813,-3.6866 1.36162,3.31039 -0.0811,-3.75118 2.33101,3.47059 -1.59725,-4.469 -0.11059,-0.43614 -3.31232,0.89763 -0.5896,1.97818 -1.06914,-2.99103 z m 186.12171,0.86352 -3.42394,0.22532 -1.90678,3.58582 c 0,0 2.07187,-2.52428 2.29382,-2.59157 0.22188,-0.0673 -0.94615,3.65094 -0.94615,3.65094 l 1.74607,-3.40858 0.68055,3.51399 0.66247,-3.69332 1.5988,3.86334 -0.68261,-4.69686 z m -93.20347,0.46612 -3.41103,0.37103 -1.75227,3.66387 c 0,0 1.96229,-2.61007 2.18117,-2.68666 0.21882,-0.0767 -0.78959,3.68816 -0.78959,3.68816 l 1.59933,-3.48041 0.82937,3.48247 0.50486,-3.71864 1.76158,3.79201 -0.88209,-4.66378 z m -183.87854,0.0863 v 0.53432 l -0.53431,5.61258 1.67012,-4.67722 1.00249,4.3434 0.60095,-4.20957 2.27212,3.94189 c 0,0 -1.60352,-4.34303 -1.33627,-4.27622 0.26724,0.0668 2.87307,2.93986 2.87307,2.93986 l -2.47262,-4.14239 z m 326.796876,0.0873 -3.31181,0.8976 -1.160606,3.89228 c 0,0 1.531987,-2.88382 1.736258,-2.99363 0.204213,-0.1098 -0.205663,3.76566 -0.205663,3.76566 l 1.038138,-3.6866 1.361618,3.31041 -0.08061,-3.75121 2.330513,3.47113 -1.597255,-4.4695 z m -10.119386,0.22839 -4.20681,1.14051 -1.37919,5.8415 c 0,0 1.85142,-4.5605 2.1109,-4.69998 0.25943,-0.13949 0.0217,3.36621 0.0217,3.36621 l 1.03555,-3.26596 0.59581,4.67775 1.0309,-5.2379 1.59054,4.97644 -0.65885,-6.24459 z m -85.95254,0.51831 v 0.53436 l -0.53431,5.61308 1.67012,-4.67723 0.76633,2.45306 0.83764,-2.31973 1.09033,4.4147 c 0,0 -0.42227,-4.81533 -0.15503,-4.74855 0.26727,0.0668 2.06956,2.42001 2.06956,2.42001 l -1.66856,-3.62302 z m -101.69151,0.0258 -0.0423,0.5328 -0.98493,5.55159 2.04165,-4.52739 0.64853,4.40957 0.93891,-4.14705 1.94657,4.11242 c 0,0 -1.24849,-4.45839 -0.98749,-4.37029 0.261,0.0881 2.6266,3.16156 2.6266,3.16156 l -2.13003,-4.32789 z m -75.28693,0.17466 -3.22811,1.16427 -0.8397,3.9734 c 0,0 1.29252,-2.99881 1.48719,-3.12486 0.1946,-0.12607 0.10128,3.77032 0.10128,3.77032 l 0.7348,-3.75947 1.62619,3.18894 -0.38548,-3.73258 2.60541,3.27009 -1.95588,-4.3248 z m 164.93005,0.0227 -3.31181,0.89762 -1.16009,3.89173 c 0,0 1.53199,-2.88329 1.73626,-2.99309 0.20421,-0.10981 -0.20566,3.76568 -0.20566,3.76568 l 1.03762,-3.6866 1.36162,3.31039 -0.0806,-3.75121 2.33051,3.47059 -1.59726,-4.46897 z"
         style="fill:#0f7474;fill-opacity:1;stroke:none;stroke-width:0.26457798px;stroke-linecap:butt;stroke-linejoin:miter;stroke-opacity:1" />
      <path
         sodipodi:nodetypes="aaaaa"
         inkscape:connector-curvature="0"
         id="path4532"
         d="m -400.63808,304.3499 c -2.73563,0.27157 -7.66557,1.01082 -7.34962,3.74179 0.55872,4.82951 9.30326,3.50072 14.16472,3.47448 3.40305,-0.0184 9.85166,0.864 9.88856,-2.53904 0.0627,-5.78192 -10.94991,-5.24841 -16.70366,-4.67723 z"
         style="fill:#3b3637;fill-opacity:1;stroke:none;stroke-width:0.26457798px;stroke-linecap:butt;stroke-linejoin:miter;stroke-opacity:1" />
      <path
         sodipodi:nodetypes="aaaa"
         inkscape:connector-curvature="0"
         id="path4534"
         d="m -257.74635,304.69153 c -2.42258,0.85686 -5.64383,4.23893 -4.27615,6.41445 3.06446,4.87455 16.63534,3.33327 17.10457,-2.40543 0.36511,-4.46535 -8.60474,-5.50293 -12.82842,-4.00902 z"
         style="fill:#3b3637;fill-opacity:1;stroke:none;stroke-width:0.26457798px;stroke-linecap:butt;stroke-linejoin:miter;stroke-opacity:1" />
      <path
         sodipodi:nodetypes="aaaaa"
         inkscape:connector-curvature="0"
         id="path4536"
         d="m -129.2043,312.94377 c 1.54933,4.08993 9.40148,5.33477 12.85067,2.64584 1.14375,-0.89165 0.72423,-2.99885 0.18898,-4.34674 -1.16735,-2.93969 -3.65004,-6.86101 -6.8033,-6.61458 -3.45411,0.26995 -7.46374,5.0754 -6.23635,8.31548 z"
         style="fill:#3b3637;fill-opacity:1;stroke:none;stroke-width:0.26457798px;stroke-linecap:butt;stroke-linejoin:miter;stroke-opacity:1" />
      <path
         style="fill:#3b3637;fill-opacity:1;stroke:none;stroke-width:0.15471807px;stroke-linecap:butt;stroke-linejoin:miter;stroke-opacity:1"
         d="m -351.5059,308.70064 c -1.5891,-0.24316 -4.48909,-0.53981 -4.70639,1.05308 -0.38431,2.81691 4.76214,3.33318 7.51987,4.02381 1.93046,0.48339 5.45541,1.9191 5.97012,-0.003 0.87456,-3.26624 -5.44133,-4.56217 -8.7836,-5.07358 z"
         id="path4538"
         inkscape:connector-curvature="0"
         sodipodi:nodetypes="aaaaa" />
      <path
         style="fill:#3b3637;fill-opacity:1;stroke:none;stroke-width:0.12913047px;stroke-linecap:butt;stroke-linejoin:miter;stroke-opacity:1"
         d="m -296.38682,312.49047 c -1.18237,0.41821 -2.75454,2.06886 -2.08703,3.13065 1.49565,2.37909 8.11908,1.62685 8.34809,-1.174 0.1782,-2.17936 -4.19964,-2.68577 -6.26106,-1.95665 z"
         id="path4540"
         inkscape:connector-curvature="0"
         sodipodi:nodetypes="aaaa" />
      <path
         sodipodi:nodetypes="aaaa"
         inkscape:connector-curvature="0"
         id="path4542"
         d="m -212.2905,306.82083 c -1.18238,0.41821 -2.75454,2.06886 -2.08703,3.13065 1.49565,2.37909 8.11907,1.62685 8.34808,-1.174 0.17821,-2.17936 -4.19964,-2.68577 -6.26105,-1.95665 z"
         style="fill:#3b3637;fill-opacity:1;stroke:none;stroke-width:0.12913047px;stroke-linecap:butt;stroke-linejoin:miter;stroke-opacity:1" />
      <path
         style="fill:#3b3637;fill-opacity:1;stroke:none;stroke-width:0.09921882px;stroke-linecap:butt;stroke-linejoin:miter;stroke-opacity:1"
         d="m -165.73107,310.94305 c 0.58101,1.53375 3.52563,2.00058 4.8191,0.99221 0.42891,-0.33438 0.27159,-1.1246 0.0709,-1.63006 -0.43777,-1.10241 -1.36879,-2.57294 -2.55129,-2.48052 -1.29532,0.10123 -2.79896,1.90331 -2.33868,3.11837 z"
         id="path4544"
         inkscape:connector-curvature="0"
         sodipodi:nodetypes="aaaaa" />
      <path
         sodipodi:nodetypes="aaaaa"
         inkscape:connector-curvature="0"
         id="path4546"
         d="m -100.23924,314.88331 c 0.581006,1.53375 3.525627,2.00058 4.819095,0.99221 0.428913,-0.33438 0.271589,-1.1246 0.0709,-1.63006 -0.437762,-1.10241 -1.368785,-2.57294 -2.551287,-2.48052 -1.295318,0.10123 -2.798958,1.90331 -2.338678,3.11837 z"
         style="fill:#3b3637;fill-opacity:1;stroke:none;stroke-width:0.09921882px;stroke-linecap:butt;stroke-linejoin:miter;stroke-opacity:1" />
      <g
         transform="matrix(0.99995976,0,0,1,-0.01718589,0)"
         id="g4693">
        <circle
           style="fill:#4a7f78;fill-opacity:1;stroke:none;stroke-width:1.07158494;stroke-miterlimit:4;stroke-dasharray:none;stroke-opacity:1"
           id="path4681"
           cx="-407.31772"
           cy="159.51509"
           r="6.6324244" />
        <circle
           r="9.7060242"
           cy="156.97604"
           cx="-397.69598"
           id="circle4683"
           style="fill:#4a7f78;fill-opacity:1;stroke:none;stroke-width:1.56817913;stroke-miterlimit:4;stroke-dasharray:none;stroke-opacity:1" />
        <circle
           style="fill:#4a7f78;fill-opacity:1;stroke:none;stroke-width:1.23351789;stroke-miterlimit:4;stroke-dasharray:none;stroke-opacity:1"
           id="circle4685"
           cx="-387.4729"
           cy="157.31012"
           r="7.6346855" />
        <circle
           r="4.3606339"
           cy="158.98055"
           cx="-379.25436"
           id="circle4687"
           style="fill:#4a7f78;fill-opacity:1;stroke:none;stroke-width:0.70453715;stroke-miterlimit:4;stroke-dasharray:none;stroke-opacity:1" />
      </g>
      <g
         transform="matrix(0.47425808,0,0,0.47427716,-158.85854,111.63006)"
         id="g4703">
        <circle
           r="6.6324244"
           cy="159.51509"
           cx="-407.31772"
           id="circle4695"
           style="fill:#4a7f78;fill-opacity:1;stroke:none;stroke-width:1.07158494;stroke-miterlimit:4;stroke-dasharray:none;stroke-opacity:1" />
        <circle
           style="fill:#4a7f78;fill-opacity:1;stroke:none;stroke-width:1.56817913;stroke-miterlimit:4;stroke-dasharray:none;stroke-opacity:1"
           id="circle4697"
           cx="-397.69598"
           cy="156.97604"
           r="9.7060242" />
        <circle
           r="7.6346855"
           cy="157.31012"
           cx="-387.4729"
           id="circle4699"
           style="fill:#4a7f78;fill-opacity:1;stroke:none;stroke-width:1.23351789;stroke-miterlimit:4;stroke-dasharray:none;stroke-opacity:1" />
        <circle
           style="fill:#4a7f78;fill-opacity:1;stroke:none;stroke-width:0.70453715;stroke-miterlimit:4;stroke-dasharray:none;stroke-opacity:1"
           id="circle4701"
           cx="-379.25436"
           cy="158.98055"
           r="4.3606339" />
      </g>
      <g
         id="g4713"
         transform="matrix(0.69683619,0,0,0.69686423,156.99841,100.83286)">
        <circle
           style="fill:#4a7f78;fill-opacity:1;stroke:none;stroke-width:1.07158494;stroke-miterlimit:4;stroke-dasharray:none;stroke-opacity:1"
           id="circle4705"
           cx="-407.31772"
           cy="159.51509"
           r="6.6324244" />
        <circle
           r="9.7060242"
           cy="156.97604"
           cx="-397.69598"
           id="circle4707"
           style="fill:#4a7f78;fill-opacity:1;stroke:none;stroke-width:1.56817913;stroke-miterlimit:4;stroke-dasharray:none;stroke-opacity:1" />
        <circle
           style="fill:#4a7f78;fill-opacity:1;stroke:none;stroke-width:1.23351789;stroke-miterlimit:4;stroke-dasharray:none;stroke-opacity:1"
           id="circle4709"
           cx="-387.4729"
           cy="157.31012"
           r="7.6346855" />
        <circle
           r="4.3606339"
           cy="158.98055"
           cx="-379.25436"
           id="circle4711"
           style="fill:#4a7f78;fill-opacity:1;stroke:none;stroke-width:0.70453715;stroke-miterlimit:4;stroke-dasharray:none;stroke-opacity:1" />
      </g>
      <g
         transform="matrix(0.93633737,0,0,0.93637505,190.92881,-1.363098)"
         id="g4723">
        <circle
           r="6.6324244"
           cy="159.51509"
           cx="-407.31772"
           id="circle4715"
           style="fill:#4a7f78;fill-opacity:1;stroke:none;stroke-width:1.07158494;stroke-miterlimit:4;stroke-dasharray:none;stroke-opacity:1" />
        <circle
           style="fill:#4a7f78;fill-opacity:1;stroke:none;stroke-width:1.56817913;stroke-miterlimit:4;stroke-dasharray:none;stroke-opacity:1"
           id="circle4717"
           cx="-397.69598"
           cy="156.97604"
           r="9.7060242" />
        <circle
           r="7.6346855"
           cy="157.31012"
           cx="-387.4729"
           id="circle4719"
           style="fill:#4a7f78;fill-opacity:1;stroke:none;stroke-width:1.23351789;stroke-miterlimit:4;stroke-dasharray:none;stroke-opacity:1" />
        <circle
           style="fill:#4a7f78;fill-opacity:1;stroke:none;stroke-width:0.70453715;stroke-miterlimit:4;stroke-dasharray:none;stroke-opacity:1"
           id="circle4721"
           cx="-379.25436"
           cy="158.98055"
           r="4.3606339" />
      </g>
      <g
         id="g4733"
         transform="matrix(0.66098387,0,0,0.66101047,1.0446933,45.604315)">
        <circle
           style="fill:#4a7f78;fill-opacity:1;stroke:none;stroke-width:1.07158494;stroke-miterlimit:4;stroke-dasharray:none;stroke-opacity:1"
           id="circle4725"
           cx="-407.31772"
           cy="159.51509"
           r="6.6324244" />
        <circle
           r="9.7060242"
           cy="156.97604"
           cx="-397.69598"
           id="circle4727"
           style="fill:#4a7f78;fill-opacity:1;stroke:none;stroke-width:1.56817913;stroke-miterlimit:4;stroke-dasharray:none;stroke-opacity:1" />
        <circle
           style="fill:#4a7f78;fill-opacity:1;stroke:none;stroke-width:1.23351789;stroke-miterlimit:4;stroke-dasharray:none;stroke-opacity:1"
           id="circle4729"
           cx="-387.4729"
           cy="157.31012"
           r="7.6346855" />
        <circle
           r="4.3606339"
           cy="158.98055"
           cx="-379.25436"
           id="circle4731"
           style="fill:#4a7f78;fill-opacity:1;stroke:none;stroke-width:0.70453715;stroke-miterlimit:4;stroke-dasharray:none;stroke-opacity:1" />
      </g>
      <g
         transform="matrix(0.69683619,0,0,0.69686423,156.99841,100.83286)"
         id="g4743">
        <circle
           r="6.6324244"
           cy="159.51509"
           cx="-407.31772"
           id="circle4735"
           style="fill:#4a7f78;fill-opacity:1;stroke:none;stroke-width:1.07158494;stroke-miterlimit:4;stroke-dasharray:none;stroke-opacity:1" />
        <circle
           style="fill:#4a7f78;fill-opacity:1;stroke:none;stroke-width:1.56817913;stroke-miterlimit:4;stroke-dasharray:none;stroke-opacity:1"
           id="circle4737"
           cx="-397.69598"
           cy="156.97604"
           r="9.7060242" />
        <circle
           r="7.6346855"
           cy="157.31012"
           cx="-387.4729"
           id="circle4739"
           style="fill:#4a7f78;fill-opacity:1;stroke:none;stroke-width:1.23351789;stroke-miterlimit:4;stroke-dasharray:none;stroke-opacity:1" />
        <circle
           style="fill:#4a7f78;fill-opacity:1;stroke:none;stroke-width:0.70453715;stroke-miterlimit:4;stroke-dasharray:none;stroke-opacity:1"
           id="circle4741"
           cx="-379.25436"
           cy="158.98055"
           r="4.3606339" />
      </g>
      <g
         transform="matrix(0.99995976,0,0,1,-0.01718589,0)"
         id="g4763">
        <circle
           r="4.3841019"
           cy="210.40617"
           cx="-285.73807"
           id="circle4745"
           style="fill:#4a7f78;fill-opacity:1;stroke:none;stroke-width:0.70832884;stroke-miterlimit:4;stroke-dasharray:none;stroke-opacity:1" />
        <circle
           style="fill:#4a7f78;fill-opacity:1;stroke:none;stroke-width:1.03658283;stroke-miterlimit:4;stroke-dasharray:none;stroke-opacity:1"
           id="circle4747"
           cx="-272.47995"
           cy="206.83795"
           r="6.4157834" />
        <circle
           r="5.046607"
           cy="208.00371"
           cx="-280.55798"
           id="circle4749"
           style="fill:#4a7f78;fill-opacity:1;stroke:none;stroke-width:0.81536824;stroke-miterlimit:4;stroke-dasharray:none;stroke-opacity:1" />
        <circle
           style="fill:#4a7f78;fill-opacity:1;stroke:none;stroke-width:0.46570644;stroke-miterlimit:4;stroke-dasharray:none;stroke-opacity:1"
           id="circle4751"
           cx="-269.64474"
           cy="210.90327"
           r="2.8824246" />
      </g>
      <ellipse
         ry="11.528275"
         rx="11.527811"
         cy="180.20535"
         cx="-192.21034"
         id="path4765"
         style="fill:#f2e5ad;fill-opacity:1;stroke:none;stroke-width:1.99995971;stroke-miterlimit:4;stroke-dasharray:none;stroke-opacity:1" />
      <circle
         transform="matrix(0.99995976,0,0,1,-0.01718589,0)"
         style="fill:#f2e5ad;fill-opacity:1;stroke:none;stroke-width:2;stroke-miterlimit:4;stroke-dasharray:none;stroke-opacity:1;filter:url(#filter4781)"
         id="circle4767"
         cx="-192.2009"
         cy="180.20535"
         r="11.528275" />
      <circle
         transform="matrix(0.99995976,0,0,1,-0.01718589,0)"
         r="0.8504464"
         cy="164.44615"
         cx="-307.6629"
         id="path4785"
         style="fill:#ffffff;fill-opacity:1;stroke:none;stroke-width:2;stroke-miterlimit:4;stroke-dasharray:none;stroke-opacity:1;filter:url(#filter4803)" />
      <use
         transform="translate(21.485413,-8.8377243)"
         height="100%"
         width="100%"
         y="0"
         x="0"
         xlink:href="#path4785"
         inkscape:spray-origin="#path4785"
         id="use4807" />
      <use
         transform="translate(-3.673664,-22.489342)"
         height="100%"
         width="100%"
         y="0"
         x="0"
         xlink:href="#path4785"
         inkscape:spray-origin="#path4785"
         id="use4809" />
      <use
         transform="translate(-27.736201,1.7466417)"
         height="100%"
         width="100%"
         y="0"
         x="0"
         xlink:href="#path4785"
         inkscape:spray-origin="#path4785"
         id="use4811" />
      <use
         transform="translate(-105.82137,15.221367)"
         height="100%"
         width="100%"
         y="0"
         x="0"
         xlink:href="#path4785"
         inkscape:spray-origin="#path4785"
         id="use4813" />
      <use
         transform="translate(-57.313304,13.120975)"
         height="100%"
         width="100%"
         y="0"
         x="0"
         xlink:href="#path4785"
         inkscape:spray-origin="#path4785"
         id="use4815" />
      <use
         transform="translate(-74.540217,20.862456)"
         height="100%"
         width="100%"
         y="0"
         x="0"
         xlink:href="#path4785"
         inkscape:spray-origin="#path4785"
         id="use4817" />
      <use
         transform="translate(-18.71634,43.796903)"
         height="100%"
         width="100%"
         y="0"
         x="0"
         xlink:href="#path4785"
         inkscape:spray-origin="#path4785"
         id="use4819" />
      <use
         transform="translate(0.87383405,19.649972)"
         height="100%"
         width="100%"
         y="0"
         x="0"
         xlink:href="#path4785"
         inkscape:spray-origin="#path4785"
         id="use4821" />
      <use
         transform="translate(48.142883,2.1444266)"
         height="100%"
         width="100%"
         y="0"
         x="0"
         xlink:href="#path4785"
         inkscape:spray-origin="#path4785"
         id="use4823" />
      <use
         transform="translate(53.603681,54.149531)"
         height="100%"
         width="100%"
         y="0"
         x="0"
         xlink:href="#path4785"
         inkscape:spray-origin="#path4785"
         id="use4825" />
      <use
         transform="translate(82.808816,37.375173)"
         height="100%"
         width="100%"
         y="0"
         x="0"
         xlink:href="#path4785"
         inkscape:spray-origin="#path4785"
         id="use4827" />
      <use
         transform="translate(86.55566,6.0704247)"
         height="100%"
         width="100%"
         y="0"
         x="0"
         xlink:href="#path4785"
         inkscape:spray-origin="#path4785"
         id="use4829" />
      <use
         transform="translate(101.4841,-17.394546)"
         height="100%"
         width="100%"
         y="0"
         x="0"
         xlink:href="#path4785"
         inkscape:spray-origin="#path4785"
         id="use4831" />
      <use
         transform="translate(163.72451,2.6288085)"
         height="100%"
         width="100%"
         y="0"
         x="0"
         xlink:href="#path4785"
         inkscape:spray-origin="#path4785"
         id="use4833" />
      <use
         transform="translate(197.46157,-19.181474)"
         height="100%"
         width="100%"
         y="0"
         x="0"
         xlink:href="#path4785"
         inkscape:spray-origin="#path4785"
         id="use4835" />
      <use
         transform="translate(171.06606,-22.87346)"
         height="100%"
         width="100%"
         y="0"
         x="0"
         xlink:href="#path4785"
         inkscape:spray-origin="#path4785"
         id="use4837" />
      <use
         transform="translate(141.94144,17.242827)"
         height="100%"
         width="100%"
         y="0"
         x="0"
         xlink:href="#path4785"
         inkscape:spray-origin="#path4785"
         id="use4839" />
      <use
         transform="translate(161.61341,38.422284)"
         height="100%"
         width="100%"
         y="0"
         x="0"
         xlink:href="#path4785"
         inkscape:spray-origin="#path4785"
         id="use4841" />
      <use
         transform="translate(150.75537,61.904567)"
         height="100%"
         width="100%"
         y="0"
         x="0"
         xlink:href="#path4785"
         inkscape:spray-origin="#path4785"
         id="use4843" />
      <use
         transform="translate(204.91254,25.138518)"
         height="100%"
         width="100%"
         y="0"
         x="0"
         xlink:href="#path4785"
         inkscape:spray-origin="#path4785"
         id="use4845" />
      <use
         transform="translate(191.09433,14.529817)"
         height="100%"
         width="100%"
         y="0"
         x="0"
         xlink:href="#path4785"
         inkscape:spray-origin="#path4785"
         id="use4847" />
      <use
         transform="translate(208.80318,57.27838)"
         height="100%"
         width="100%"
         y="0"
         x="0"
         xlink:href="#path4785"
         inkscape:spray-origin="#path4785"
         id="use4849" />
      <use
         transform="translate(110.85595,45.854916)"
         height="100%"
         width="100%"
         y="0"
         x="0"
         xlink:href="#path4785"
         inkscape:spray-origin="#path4785"
         id="use4851" />
      <use
         transform="translate(46.27661,16.638005)"
         height="100%"
         width="100%"
         y="0"
         x="0"
         xlink:href="#path4785"
         inkscape:spray-origin="#path4785"
         id="use4853" />
      <use
         transform="translate(6.7502636,59.000177)"
         height="100%"
         width="100%"
         y="0"
         x="0"
         xlink:href="#path4785"
         inkscape:spray-origin="#path4785"
         id="use4855" />
      <use
         transform="translate(-44.440641,-23.85335)"
         height="100%"
         width="100%"
         y="0"
         x="0"
         xlink:href="#path4785"
         inkscape:spray-origin="#path4785"
         id="use4857" />
      <use
         transform="translate(-103.51213,-11.605375)"
         height="100%"
         width="100%"
         y="0"
         x="0"
         xlink:href="#path4785"
         inkscape:spray-origin="#path4785"
         id="use4859" />
      <use
         transform="translate(-67.035917,-25.612228)"
         height="100%"
         width="100%"
         y="0"
         x="0"
         xlink:href="#path4785"
         inkscape:spray-origin="#path4785"
         id="use4861" />
      <use
         transform="translate(-108.08714,-25.975948)"
         height="100%"
         width="100%"
         y="0"
         x="0"
         xlink:href="#path4785"
         inkscape:spray-origin="#path4785"
         id="use4863" />
      <use
         transform="translate(-55.484608,-2.21125)"
         height="100%"
         width="100%"
         y="0"
         x="0"
         xlink:href="#path4785"
         inkscape:spray-origin="#path4785"
         id="use4865" />
      <use
         transform="translate(-106.08064,37.602783)"
         height="100%"
         width="100%"
         y="0"
         x="0"
         xlink:href="#path4785"
         inkscape:spray-origin="#path4785"
         id="use4867" />
      <use
         transform="translate(-83.236748,35.053772)"
         height="100%"
         width="100%"
         y="0"
         x="0"
         xlink:href="#path4785"
         inkscape:spray-origin="#path4785"
         id="use4869" />
      <use
         transform="translate(-64.095704,43.872164)"
         height="100%"
         width="100%"
         y="0"
         x="0"
         xlink:href="#path4785"
         inkscape:spray-origin="#path4785"
         id="use4871" />
    </g>
  </g>
</svg>
